<mxfile host="app.diagrams.net" agent="Mozilla/5.0 (Windows NT 10.0; Win64; x64) AppleWebKit/537.36 (KHTML, like Gecko) Chrome/136.0.0.0 Safari/537.36" version="26.1.1">
  <diagram name="Page-1" id="42t5IICJYj_6hYMSin3u">
    <mxGraphModel dx="3500" dy="2909" grid="1" gridSize="10" guides="1" tooltips="1" connect="1" arrows="1" fold="1" page="1" pageScale="1" pageWidth="827" pageHeight="1169" math="0" shadow="0">
      <root>
        <mxCell id="0" />
        <mxCell id="1" parent="0" />
        <mxCell id="YnAMLQHuSDMeVL4TZSIR-16" value="" style="rounded=0;whiteSpace=wrap;html=1;" vertex="1" parent="1">
          <mxGeometry x="300" y="-180" width="260" height="270" as="geometry" />
        </mxCell>
        <mxCell id="lV_iJmZg0Koc6XKufrHM-44" value="LCD" style="rounded=0;whiteSpace=wrap;html=1;align=left;" parent="1" vertex="1">
          <mxGeometry x="475" y="710" width="310" height="190" as="geometry" />
        </mxCell>
        <mxCell id="lV_iJmZg0Koc6XKufrHM-1" value="Software Timer" style="rounded=0;whiteSpace=wrap;html=1;" parent="1" vertex="1">
          <mxGeometry x="80" y="120" width="120" height="60" as="geometry" />
        </mxCell>
        <mxCell id="YnAMLQHuSDMeVL4TZSIR-2" style="edgeStyle=orthogonalEdgeStyle;rounded=0;orthogonalLoop=1;jettySize=auto;html=1;entryX=0;entryY=0.5;entryDx=0;entryDy=0;" edge="1" parent="1" source="lV_iJmZg0Koc6XKufrHM-2" target="lV_iJmZg0Koc6XKufrHM-20">
          <mxGeometry relative="1" as="geometry" />
        </mxCell>
        <mxCell id="YnAMLQHuSDMeVL4TZSIR-3" value="Get data" style="edgeLabel;html=1;align=center;verticalAlign=middle;resizable=0;points=[];" vertex="1" connectable="0" parent="YnAMLQHuSDMeVL4TZSIR-2">
          <mxGeometry x="-0.0587" relative="1" as="geometry">
            <mxPoint as="offset" />
          </mxGeometry>
        </mxCell>
        <mxCell id="lV_iJmZg0Koc6XKufrHM-2" value="LCD" style="rounded=0;whiteSpace=wrap;html=1;" parent="1" vertex="1">
          <mxGeometry x="310" y="120" width="120" height="60" as="geometry" />
        </mxCell>
        <mxCell id="lV_iJmZg0Koc6XKufrHM-3" style="edgeStyle=orthogonalEdgeStyle;rounded=0;orthogonalLoop=1;jettySize=auto;html=1;entryX=-0.083;entryY=0.5;entryDx=0;entryDy=0;entryPerimeter=0;" parent="1" source="lV_iJmZg0Koc6XKufrHM-1" target="lV_iJmZg0Koc6XKufrHM-2" edge="1">
          <mxGeometry relative="1" as="geometry" />
        </mxCell>
        <mxCell id="lV_iJmZg0Koc6XKufrHM-4" value="5s" style="edgeLabel;html=1;align=center;verticalAlign=middle;resizable=0;points=[];" parent="lV_iJmZg0Koc6XKufrHM-3" vertex="1" connectable="0">
          <mxGeometry x="-0.0404" y="1" relative="1" as="geometry">
            <mxPoint as="offset" />
          </mxGeometry>
        </mxCell>
        <mxCell id="lV_iJmZg0Koc6XKufrHM-24" style="edgeStyle=orthogonalEdgeStyle;rounded=0;orthogonalLoop=1;jettySize=auto;html=1;entryX=0.5;entryY=0;entryDx=0;entryDy=0;" parent="1" source="lV_iJmZg0Koc6XKufrHM-9" target="lV_iJmZg0Koc6XKufrHM-10" edge="1">
          <mxGeometry relative="1" as="geometry" />
        </mxCell>
        <mxCell id="lV_iJmZg0Koc6XKufrHM-25" style="edgeStyle=orthogonalEdgeStyle;rounded=0;orthogonalLoop=1;jettySize=auto;html=1;exitX=1;exitY=0.5;exitDx=0;exitDy=0;entryX=0.5;entryY=0;entryDx=0;entryDy=0;" parent="1" source="lV_iJmZg0Koc6XKufrHM-9" target="lV_iJmZg0Koc6XKufrHM-11" edge="1">
          <mxGeometry relative="1" as="geometry" />
        </mxCell>
        <mxCell id="lV_iJmZg0Koc6XKufrHM-9" value="Control Node" style="rounded=0;whiteSpace=wrap;html=1;" parent="1" vertex="1">
          <mxGeometry x="310" y="330" width="120" height="60" as="geometry" />
        </mxCell>
        <mxCell id="lV_iJmZg0Koc6XKufrHM-12" style="edgeStyle=orthogonalEdgeStyle;rounded=0;orthogonalLoop=1;jettySize=auto;html=1;entryX=0;entryY=0.5;entryDx=0;entryDy=0;" parent="1" source="lV_iJmZg0Koc6XKufrHM-10" target="lV_iJmZg0Koc6XKufrHM-9" edge="1">
          <mxGeometry relative="1" as="geometry" />
        </mxCell>
        <mxCell id="lV_iJmZg0Koc6XKufrHM-13" value="data every time period" style="edgeLabel;html=1;align=center;verticalAlign=middle;resizable=0;points=[];" parent="lV_iJmZg0Koc6XKufrHM-12" vertex="1" connectable="0">
          <mxGeometry x="0.102" y="-1" relative="1" as="geometry">
            <mxPoint as="offset" />
          </mxGeometry>
        </mxCell>
        <mxCell id="lV_iJmZg0Koc6XKufrHM-10" value="SN1" style="rounded=0;whiteSpace=wrap;html=1;" parent="1" vertex="1">
          <mxGeometry x="150" y="490" width="120" height="60" as="geometry" />
        </mxCell>
        <mxCell id="lV_iJmZg0Koc6XKufrHM-11" value="SN2" style="rounded=0;whiteSpace=wrap;html=1;" parent="1" vertex="1">
          <mxGeometry x="480" y="500" width="120" height="60" as="geometry" />
        </mxCell>
        <mxCell id="lV_iJmZg0Koc6XKufrHM-14" style="edgeStyle=orthogonalEdgeStyle;rounded=0;orthogonalLoop=1;jettySize=auto;html=1;entryX=1;entryY=0.5;entryDx=0;entryDy=0;exitX=0;exitY=0.5;exitDx=0;exitDy=0;" parent="1" source="lV_iJmZg0Koc6XKufrHM-11" target="lV_iJmZg0Koc6XKufrHM-9" edge="1">
          <mxGeometry relative="1" as="geometry">
            <mxPoint x="510" y="480" as="sourcePoint" />
            <mxPoint x="550" y="320" as="targetPoint" />
          </mxGeometry>
        </mxCell>
        <mxCell id="lV_iJmZg0Koc6XKufrHM-15" value="data every time period" style="edgeLabel;html=1;align=center;verticalAlign=middle;resizable=0;points=[];" parent="lV_iJmZg0Koc6XKufrHM-14" vertex="1" connectable="0">
          <mxGeometry x="0.102" y="-1" relative="1" as="geometry">
            <mxPoint y="-4" as="offset" />
          </mxGeometry>
        </mxCell>
        <mxCell id="lV_iJmZg0Koc6XKufrHM-26" style="edgeStyle=orthogonalEdgeStyle;rounded=0;orthogonalLoop=1;jettySize=auto;html=1;entryX=0.5;entryY=0;entryDx=0;entryDy=0;" parent="1" source="lV_iJmZg0Koc6XKufrHM-16" target="lV_iJmZg0Koc6XKufrHM-9" edge="1">
          <mxGeometry relative="1" as="geometry" />
        </mxCell>
        <mxCell id="lV_iJmZg0Koc6XKufrHM-16" value="Subscribe to data" style="rounded=0;whiteSpace=wrap;html=1;" parent="1" vertex="1">
          <mxGeometry x="560" y="270" width="120" height="60" as="geometry" />
        </mxCell>
        <mxCell id="lV_iJmZg0Koc6XKufrHM-17" value="Subscribe to data" style="rounded=0;whiteSpace=wrap;html=1;" parent="1" vertex="1">
          <mxGeometry x="570" y="280" width="120" height="60" as="geometry" />
        </mxCell>
        <mxCell id="lV_iJmZg0Koc6XKufrHM-18" value="Subscribe to data" style="rounded=0;whiteSpace=wrap;html=1;" parent="1" vertex="1">
          <mxGeometry x="580" y="290" width="120" height="60" as="geometry" />
        </mxCell>
        <mxCell id="lV_iJmZg0Koc6XKufrHM-22" style="edgeStyle=orthogonalEdgeStyle;rounded=0;orthogonalLoop=1;jettySize=auto;html=1;entryX=0.5;entryY=1;entryDx=0;entryDy=0;" parent="1" source="lV_iJmZg0Koc6XKufrHM-19" target="lV_iJmZg0Koc6XKufrHM-20" edge="1">
          <mxGeometry relative="1" as="geometry">
            <Array as="points">
              <mxPoint x="740" y="330" />
              <mxPoint x="740" y="190" />
            </Array>
          </mxGeometry>
        </mxCell>
        <mxCell id="lV_iJmZg0Koc6XKufrHM-19" value="Subscribe to data" style="rounded=0;whiteSpace=wrap;html=1;" parent="1" vertex="1">
          <mxGeometry x="590" y="300" width="120" height="60" as="geometry" />
        </mxCell>
        <mxCell id="lV_iJmZg0Koc6XKufrHM-27" style="edgeStyle=orthogonalEdgeStyle;rounded=0;orthogonalLoop=1;jettySize=auto;html=1;entryX=0.5;entryY=1;entryDx=0;entryDy=0;exitX=0.119;exitY=-0.006;exitDx=0;exitDy=0;exitPerimeter=0;" parent="1" target="YnAMLQHuSDMeVL4TZSIR-5" edge="1">
          <mxGeometry relative="1" as="geometry">
            <mxPoint x="334.28" y="331.32" as="sourcePoint" />
            <mxPoint x="334.28" y="180.00000000000006" as="targetPoint" />
          </mxGeometry>
        </mxCell>
        <mxCell id="lV_iJmZg0Koc6XKufrHM-20" value="Data Manager" style="rounded=0;whiteSpace=wrap;html=1;" parent="1" vertex="1">
          <mxGeometry x="680" y="120" width="120" height="60" as="geometry" />
        </mxCell>
        <mxCell id="lV_iJmZg0Koc6XKufrHM-21" value="Latest values for data" style="text;html=1;align=center;verticalAlign=middle;whiteSpace=wrap;rounded=0;" parent="1" vertex="1">
          <mxGeometry x="665" y="90" width="150" height="30" as="geometry" />
        </mxCell>
        <mxCell id="lV_iJmZg0Koc6XKufrHM-31" style="edgeStyle=orthogonalEdgeStyle;rounded=0;orthogonalLoop=1;jettySize=auto;html=1;" parent="1" source="lV_iJmZg0Koc6XKufrHM-28" edge="1">
          <mxGeometry relative="1" as="geometry">
            <mxPoint x="320" y="630" as="targetPoint" />
            <Array as="points">
              <mxPoint x="230" y="630" />
              <mxPoint x="230" y="630" />
            </Array>
          </mxGeometry>
        </mxCell>
        <mxCell id="lV_iJmZg0Koc6XKufrHM-32" value="10s" style="edgeLabel;html=1;align=center;verticalAlign=middle;resizable=0;points=[];" parent="lV_iJmZg0Koc6XKufrHM-31" vertex="1" connectable="0">
          <mxGeometry x="0.0571" relative="1" as="geometry">
            <mxPoint as="offset" />
          </mxGeometry>
        </mxCell>
        <mxCell id="lV_iJmZg0Koc6XKufrHM-28" value="Temperature" style="rounded=0;whiteSpace=wrap;html=1;" parent="1" vertex="1">
          <mxGeometry x="30" y="600" width="120" height="60" as="geometry" />
        </mxCell>
        <mxCell id="lV_iJmZg0Koc6XKufrHM-33" style="edgeStyle=orthogonalEdgeStyle;rounded=0;orthogonalLoop=1;jettySize=auto;html=1;" parent="1" source="lV_iJmZg0Koc6XKufrHM-29" edge="1">
          <mxGeometry relative="1" as="geometry">
            <mxPoint x="320" y="710" as="targetPoint" />
          </mxGeometry>
        </mxCell>
        <mxCell id="lV_iJmZg0Koc6XKufrHM-34" value="5s" style="edgeLabel;html=1;align=center;verticalAlign=middle;resizable=0;points=[];" parent="lV_iJmZg0Koc6XKufrHM-33" vertex="1" connectable="0">
          <mxGeometry x="-0.0027" y="2" relative="1" as="geometry">
            <mxPoint x="-1" y="-1" as="offset" />
          </mxGeometry>
        </mxCell>
        <mxCell id="lV_iJmZg0Koc6XKufrHM-29" value="Light Level" style="rounded=0;whiteSpace=wrap;html=1;" parent="1" vertex="1">
          <mxGeometry x="30" y="680" width="120" height="60" as="geometry" />
        </mxCell>
        <mxCell id="lV_iJmZg0Koc6XKufrHM-35" style="edgeStyle=orthogonalEdgeStyle;rounded=0;orthogonalLoop=1;jettySize=auto;html=1;" parent="1" source="lV_iJmZg0Koc6XKufrHM-30" edge="1">
          <mxGeometry relative="1" as="geometry">
            <mxPoint x="320" y="790" as="targetPoint" />
          </mxGeometry>
        </mxCell>
        <mxCell id="lV_iJmZg0Koc6XKufrHM-54" value="5s" style="edgeLabel;html=1;align=center;verticalAlign=middle;resizable=0;points=[];" parent="lV_iJmZg0Koc6XKufrHM-35" vertex="1" connectable="0">
          <mxGeometry x="0.0262" y="1" relative="1" as="geometry">
            <mxPoint as="offset" />
          </mxGeometry>
        </mxCell>
        <mxCell id="lV_iJmZg0Koc6XKufrHM-30" value="Power Consumption" style="rounded=0;whiteSpace=wrap;html=1;" parent="1" vertex="1">
          <mxGeometry x="30" y="760" width="120" height="60" as="geometry" />
        </mxCell>
        <mxCell id="lV_iJmZg0Koc6XKufrHM-39" style="edgeStyle=orthogonalEdgeStyle;rounded=0;orthogonalLoop=1;jettySize=auto;html=1;entryX=0.5;entryY=0;entryDx=0;entryDy=0;" parent="1" source="lV_iJmZg0Koc6XKufrHM-37" target="lV_iJmZg0Koc6XKufrHM-38" edge="1">
          <mxGeometry relative="1" as="geometry" />
        </mxCell>
        <mxCell id="lV_iJmZg0Koc6XKufrHM-40" value="ScreenUpdateFlag" style="edgeLabel;html=1;align=center;verticalAlign=middle;resizable=0;points=[];" parent="lV_iJmZg0Koc6XKufrHM-39" vertex="1" connectable="0">
          <mxGeometry x="-0.3043" relative="1" as="geometry">
            <mxPoint as="offset" />
          </mxGeometry>
        </mxCell>
        <mxCell id="lV_iJmZg0Koc6XKufrHM-37" value="Timer" style="rounded=0;whiteSpace=wrap;html=1;" parent="1" vertex="1">
          <mxGeometry x="380" y="620" width="120" height="40" as="geometry" />
        </mxCell>
        <mxCell id="lV_iJmZg0Koc6XKufrHM-38" value="Queue" style="rounded=0;whiteSpace=wrap;html=1;" parent="1" vertex="1">
          <mxGeometry x="570" y="710" width="120" height="40" as="geometry" />
        </mxCell>
        <mxCell id="lV_iJmZg0Koc6XKufrHM-42" style="edgeStyle=orthogonalEdgeStyle;rounded=0;orthogonalLoop=1;jettySize=auto;html=1;entryX=0.5;entryY=0;entryDx=0;entryDy=0;" parent="1" source="lV_iJmZg0Koc6XKufrHM-41" target="lV_iJmZg0Koc6XKufrHM-38" edge="1">
          <mxGeometry relative="1" as="geometry" />
        </mxCell>
        <mxCell id="lV_iJmZg0Koc6XKufrHM-43" value="DataUpdateFlag" style="edgeLabel;html=1;align=center;verticalAlign=middle;resizable=0;points=[];" parent="lV_iJmZg0Koc6XKufrHM-42" vertex="1" connectable="0">
          <mxGeometry x="-0.3216" y="-2" relative="1" as="geometry">
            <mxPoint as="offset" />
          </mxGeometry>
        </mxCell>
        <mxCell id="lV_iJmZg0Koc6XKufrHM-41" value="DataManager" style="rounded=0;whiteSpace=wrap;html=1;" parent="1" vertex="1">
          <mxGeometry x="750" y="620" width="120" height="40" as="geometry" />
        </mxCell>
        <mxCell id="lV_iJmZg0Koc6XKufrHM-45" value="Wait For queue data" style="rounded=0;whiteSpace=wrap;html=1;" parent="1" vertex="1">
          <mxGeometry x="570" y="750" width="120" height="30" as="geometry" />
        </mxCell>
        <mxCell id="lV_iJmZg0Koc6XKufrHM-46" value="if ScreenUpdate" style="rounded=0;whiteSpace=wrap;html=1;" parent="1" vertex="1">
          <mxGeometry x="570" y="780" width="120" height="30" as="geometry" />
        </mxCell>
        <mxCell id="lV_iJmZg0Koc6XKufrHM-47" value="go to next screen" style="rounded=0;whiteSpace=wrap;html=1;" parent="1" vertex="1">
          <mxGeometry x="590" y="810" width="120" height="30" as="geometry" />
        </mxCell>
        <mxCell id="lV_iJmZg0Koc6XKufrHM-48" value="if DataUpdate" style="rounded=0;whiteSpace=wrap;html=1;" parent="1" vertex="1">
          <mxGeometry x="570" y="840" width="120" height="30" as="geometry" />
        </mxCell>
        <mxCell id="lV_iJmZg0Koc6XKufrHM-49" value="redraw screen with new data" style="rounded=0;whiteSpace=wrap;html=1;" parent="1" vertex="1">
          <mxGeometry x="590" y="870" width="120" height="30" as="geometry" />
        </mxCell>
        <mxCell id="lV_iJmZg0Koc6XKufrHM-51" style="edgeStyle=orthogonalEdgeStyle;rounded=0;orthogonalLoop=1;jettySize=auto;html=1;" parent="1" source="lV_iJmZg0Koc6XKufrHM-50" edge="1">
          <mxGeometry relative="1" as="geometry">
            <mxPoint x="320" y="870" as="targetPoint" />
          </mxGeometry>
        </mxCell>
        <mxCell id="lV_iJmZg0Koc6XKufrHM-52" value="Whenever Pressed" style="edgeLabel;html=1;align=center;verticalAlign=middle;resizable=0;points=[];" parent="lV_iJmZg0Koc6XKufrHM-51" vertex="1" connectable="0">
          <mxGeometry x="-0.0262" y="1" relative="1" as="geometry">
            <mxPoint as="offset" />
          </mxGeometry>
        </mxCell>
        <mxCell id="lV_iJmZg0Koc6XKufrHM-50" value="Emergency Call" style="rounded=0;whiteSpace=wrap;html=1;" parent="1" vertex="1">
          <mxGeometry x="30" y="840" width="120" height="60" as="geometry" />
        </mxCell>
        <mxCell id="lV_iJmZg0Koc6XKufrHM-53" value="Enum: LCDUpdate" style="rounded=0;whiteSpace=wrap;html=1;" parent="1" vertex="1">
          <mxGeometry x="750" y="520" width="120" height="55" as="geometry" />
        </mxCell>
        <mxCell id="YnAMLQHuSDMeVL4TZSIR-1" value="&lt;span style=&quot;color: rgb(0, 0, 0); font-family: Helvetica; font-size: 11px; font-style: normal; font-variant-ligatures: normal; font-variant-caps: normal; font-weight: 400; letter-spacing: normal; orphans: 2; text-align: center; text-indent: 0px; text-transform: none; widows: 2; word-spacing: 0px; -webkit-text-stroke-width: 0px; white-space: nowrap; background-color: rgb(255, 255, 255); text-decoration-thickness: initial; text-decoration-style: initial; text-decoration-color: initial; float: none; display: inline !important;&quot;&gt;REFRESH&lt;/span&gt;" style="text;whiteSpace=wrap;html=1;" vertex="1" parent="1">
          <mxGeometry x="284" y="231.68" width="50" height="30" as="geometry" />
        </mxCell>
        <mxCell id="YnAMLQHuSDMeVL4TZSIR-5" value="Queue" style="rounded=0;whiteSpace=wrap;html=1;" vertex="1" parent="1">
          <mxGeometry x="310" y="180" width="80" height="20" as="geometry" />
        </mxCell>
        <mxCell id="YnAMLQHuSDMeVL4TZSIR-7" value="NEW_SCREEN" style="text;html=1;align=center;verticalAlign=middle;whiteSpace=wrap;rounded=0;" vertex="1" parent="1">
          <mxGeometry x="230" y="110" width="60" height="30" as="geometry" />
        </mxCell>
        <mxCell id="YnAMLQHuSDMeVL4TZSIR-9" value="Loop" style="rounded=0;whiteSpace=wrap;html=1;" vertex="1" parent="1">
          <mxGeometry x="340" y="-130" width="170" height="30" as="geometry" />
        </mxCell>
        <mxCell id="YnAMLQHuSDMeVL4TZSIR-10" value="get queue value" style="rounded=0;whiteSpace=wrap;html=1;" vertex="1" parent="1">
          <mxGeometry x="340" y="-100" width="110" height="30" as="geometry" />
        </mxCell>
        <mxCell id="YnAMLQHuSDMeVL4TZSIR-11" value="switch (queue value)" style="rounded=0;whiteSpace=wrap;html=1;" vertex="1" parent="1">
          <mxGeometry x="340" y="-70" width="140" height="30" as="geometry" />
        </mxCell>
        <mxCell id="YnAMLQHuSDMeVL4TZSIR-12" value="case NEW_SCREEN" style="rounded=0;whiteSpace=wrap;html=1;" vertex="1" parent="1">
          <mxGeometry x="370" y="-40" width="140" height="30" as="geometry" />
        </mxCell>
        <mxCell id="YnAMLQHuSDMeVL4TZSIR-13" value="Show new screen" style="rounded=0;whiteSpace=wrap;html=1;" vertex="1" parent="1">
          <mxGeometry x="400" y="-10" width="140" height="30" as="geometry" />
        </mxCell>
        <mxCell id="YnAMLQHuSDMeVL4TZSIR-14" value="Refresh" style="rounded=0;whiteSpace=wrap;html=1;" vertex="1" parent="1">
          <mxGeometry x="370" y="20" width="140" height="30" as="geometry" />
        </mxCell>
        <mxCell id="YnAMLQHuSDMeVL4TZSIR-15" value="Redraw current screen" style="rounded=0;whiteSpace=wrap;html=1;" vertex="1" parent="1">
          <mxGeometry x="400" y="50" width="140" height="30" as="geometry" />
        </mxCell>
        <mxCell id="YnAMLQHuSDMeVL4TZSIR-17" value="LCD Thread" style="text;html=1;align=center;verticalAlign=middle;whiteSpace=wrap;rounded=0;" vertex="1" parent="1">
          <mxGeometry x="300" y="-180" width="60" height="30" as="geometry" />
        </mxCell>
        <mxCell id="YnAMLQHuSDMeVL4TZSIR-18" value="&lt;div&gt;LCD.h&lt;/div&gt;extern DataManager data_manager;" style="text;html=1;align=center;verticalAlign=middle;whiteSpace=wrap;rounded=0;" vertex="1" parent="1">
          <mxGeometry x="617.5" y="35" width="245" height="60" as="geometry" />
        </mxCell>
      </root>
    </mxGraphModel>
  </diagram>
</mxfile>
